<svg xmlns="http://www.w3.org/2000/svg" viewBox="0 0 128 128" x="0px" y="0px"><g><path d="M61.253,92.367a9.951,9.951,0,0,1,4.016-4.8,8.08,8.08,0,0,1,3.17-.669c3.618-.29,4.053-2.557,4.2-5.046.009-.13.01-.249.01-.369V80.65l-.825.083c-3.2.319-6.814.885-9.111,3.567a16.551,16.551,0,0,0-2.8,5.179c-.19.486-.384.983-.6,1.486a5.566,5.566,0,0,1-.362.7l-.746,1.218,1.426-.076c.252-.014.51-.015.763-.015l.654.016Z"></path><path d="M59.639,93.68a28.139,28.139,0,0,0-3.282.389c-.69.11-1.379.22-2.08.3-.147.014-.2-.028-.214-.045a.75.75,0,0,0-1.256.547c-.016,1.94-.04,3.889-.072,5.83a.75.75,0,0,0,.674.758,8.2,8.2,0,0,0,.844.045c2.916,0,4.883-1.681,5.578-4.8.158-.686.339-1.356.554-2.047a.751.751,0,0,0-.746-.972Z"></path><path d="M70.377,60.292c-.229-2.188.047-10.187-2.693-11.6a1.009,1.009,0,0,1-.695-.2,60.888,60.888,0,0,0-9.216-.419c-4.983.048-3.924,7.652-3.9,11.008q-.035,2.619-.055,5.236a.224.224,0,0,1,.1,0c.15-2.211.323-4.414.347-6.625.016-2.322.1-4.652,1.461-6.61,2.1-3.032,8.789-2.835,11.332-.505,3.017,2.763,3.49,9.942,2.416,13.669-.671,2.314-3.19,3.483-5.314,4.067a24.062,24.062,0,0,0-10.424,5.433q-.07,9.346-.15,18.676c.324,0,.671-.008,1.011-.032.718-6.293.711-10.55.9-13.211.126-2.835.276-3.909.442-3.909s.308,1.082.395,3.917a100.079,100.079,0,0,1-.521,13.038,2.308,2.308,0,0,0,1.911-1.588c.245-.908.49-1.777.821-2.653a14.106,14.106,0,0,1,3.064-4.872c2.906-2.851,6.468-3.6,10.369-4.012a61.363,61.363,0,0,0-.308-6.91C71.277,68.22,70.779,64.264,70.377,60.292Zm-.316,15.959a1.185,1.185,0,0,1-2.369,0,12.185,12.185,0,0,0-.158-2.937c-.363-1.485,1.919-2.117,2.282-.632A14.644,14.644,0,0,1,70.061,76.251Z"></path><path d="M76.087,29.38l-.034.746.745.038a41.618,41.618,0,0,1,4.987.573.549.549,0,0,1,.133.052l.221.07a.315.315,0,0,1,.3.38c0,.081,0,.156-.006.231l-.041.5.452.228a107.043,107.043,0,0,0,15.449,5.86q1.338.429,2.676.863l1.117.364-.14-1.167c-.162-1.34-1.283-2.278-2.368-3.184a10.6,10.6,0,0,1-1.454-1.371l-.174-.218-.274-.051a18.612,18.612,0,0,1-5.626-2.105.544.544,0,0,1-.171-.149l-.108-.154-.348-.15,0,.005-.862-.216a33.234,33.234,0,0,1-4.869-1.542c-.41-.176-.813-.363-1.216-.549a17.064,17.064,0,0,0-4.445-1.564c-.135-.021-.245-.057-.224-.278l.007-.073-.007-.072c-.006-.056-.012-.112-.013-.159a13.488,13.488,0,0,0-.605-3.807,18.6,18.6,0,0,1-.476-2.175v-.557l-.534-.161c-.952-.288-1.8-.51-2.6-.679l-1.695-.361.9,1.483C76.4,22.7,76.225,26.406,76.087,29.38Z"></path><path d="M91.967,29.738l.009.455.408.2.387-.647h0l-.264.678-.011.02h0a18.893,18.893,0,0,0,3.4,1.481l1.709.562-.8-1.61a16.126,16.126,0,0,0-3.946-5.26L91.288,24.3l.342,2.016A23.212,23.212,0,0,1,91.967,29.738Z"></path><path d="M101.573,43.419l-1.752-.637L99.7,46.987l.579.149c1.639.421,3.306.873,4.955,1.344l.967.277-.04-3.674-.49-.177Q103.628,44.17,101.573,43.419Z"></path><path d="M83.445,33.429l-1.024-.488-.048,1.133c-.016.368-.024.729-.032,1.089l-.012.557.529.173c5.566,1.816,11.189,3.867,16.627,5.851q2.828,1.032,5.652,2.054l1,.362V41.61l-.5-.178c-2.532-.917-5.119-1.754-7.62-2.563A118.537,118.537,0,0,1,83.445,33.429Z"></path><path d="M57.852,63.19a14.322,14.322,0,0,0-1.437-1.232c-.158,2.361-.332,4.73-.324,7.091a24.451,24.451,0,0,1,6.357-2.724c3.277-.9,5.4-2.267,5.07-5.931a31.709,31.709,0,0,0-.829-6.017c-.853-2.756-3.641-3.2-6.207-3a1.518,1.518,0,0,1-.19.024,26.439,26.439,0,0,1,4.344,5.915c.75,1.634.932,2.29.781,2.361s-.6-.466-1.508-1.935c-.2-.379-.553-.758-.876-1.232-.356-.45-.7-.995-1.161-1.564-.474-.544-.995-1.16-1.58-1.839-.41-.435-.876-.893-1.366-1.367a3.677,3.677,0,0,0-2.092,2.891,23.26,23.26,0,0,1,3.387,3.545c1,1.248,1.714,2.251,2.267,3,1.09,1.524,1.484,2.124,1.35,2.251-.11.1-.726-.316-2.006-1.722-.639-.7-1.429-1.65-2.448-2.835a30.221,30.221,0,0,0-2.716-2.819c-.016.253-.024.513-.024.782-.016,1.255-.071,2.519-.142,3.775a5.948,5.948,0,0,1,2.029,2.076c.308.672.316.956.174,1.035S58.287,63.656,57.852,63.19Z"></path><path d="M80.04,22.387a17.491,17.491,0,0,1,.6,3.182l.035.545.529.135a20.883,20.883,0,0,1,3.61,1.416l.186.086a33.135,33.135,0,0,0,5.106,1.755l1.018.28-.072-1.054a24.639,24.639,0,0,0-.6-3.866l-.092-.224a.487.487,0,0,1-.064-.237l-.017-.454-.41-.2a48.487,48.487,0,0,0-5.8-2.183c-.7-.228-1.395-.457-2.093-.7L79.469,20l.309,1.324C79.861,21.681,79.95,22.034,80.04,22.387Z"></path><path d="M75.249,29.046c.043-.77.09-1.619.1-2.487a.753.753,0,0,0-.319-.624.744.744,0,0,0-.7-.089,2.128,2.128,0,0,0-.541.3,1.057,1.057,0,0,0-.344.493.745.745,0,0,0-.342.348,7.048,7.048,0,0,0-.306,3.348l.029.439c.031.5.047,1.012.054,1.514a.723.723,0,0,0,.645.694.709.709,0,0,0,.1.007.8.8,0,0,0,.733-.548,12.518,12.518,0,0,0,.413-1.761.744.744,0,0,0,.01-.125.466.466,0,0,1,.147-.364.748.748,0,0,0,.278-.544Z"></path><path d="M75.272,47.24c.008-.651.008-1.3.008-1.952v-.94l-.916.208c-.336.077-.68.145-1.024.207l-.665.118.049.674a4.3,4.3,0,0,0,.477,1.89,2.277,2.277,0,0,0,1.01.95l1.077.521v-1.2c0-.095,0-.188-.009-.281C75.276,47.37,75.272,47.3,75.272,47.24Z"></path><path d="M62.471,20.652l.979-.18c1.668-.3,3.395-.473,5.066-.639.762-.076,1.524-.151,2.286-.239L73.8,19.25l-2.807-1.1c-2.411-.944-5.3-.557-7.808-.121-.216.034-1,.213-2.469.551-1.748.4-3.923.9-4.911,1.087l-.611.116v.621l-.213,1.072.944-.006A37.035,37.035,0,0,0,62.471,20.652Z"></path><path d="M51.5,38.341l1.032.5.046-1.147c.226-5.694-.4-8.189-2.08-8.342L49.86,29.3l-.158.62a9.609,9.609,0,0,0-.273,1.65q-.051.655-.095,1.3c-.1,1.4-.19,2.715-.4,4.05l-.115.746.746.11A6.671,6.671,0,0,1,51.5,38.341Z"></path><path d="M61.526,26.909c3.636-.249,7.4-.506,11.082-1l.248-.034.179-.175a2.973,2.973,0,0,1,1.608-.784l.685-.126-.076-.693a7.415,7.415,0,0,0-1.03-3.333c-.055-.085-.117-.165-.18-.244l-.349-.48-.458.073c-1.525.245-3.091.412-4.607.574-1.946.208-3.958.423-5.937.8a29.53,29.53,0,0,1-8.132.8l-.481-.12-.3.395a34.908,34.908,0,0,0-2.759,4.069l-.71,1.282,1.455-.174C55.005,27.356,58.32,27.129,61.526,26.909Z"></path><path d="M65.145,35.109a19.576,19.576,0,0,0-5.684.461h0c-.27.076-.547.143-.825.2l-.558.121-.033.57c-.033.578-.041,1.149-.033,1.727l.011.767.767-.028c2.025-.075,4.2-.14,6.371-.126l.739.006.017-.739a19.281,19.281,0,0,0-.043-2.285l-.065-.66Z"></path><path d="M74.96,36.483l-.074-.7-.7.03c-.157.006-.3,0-.436-.007l-.607-.031-.155.588c-.614,2.33-1.6,3.385-3.2,3.422-5.185.118-10.489.134-15.629.15l-.747,0v.748l.207.769.5.042c.825.069,1.65.147,2.467.256,2.924.392,5.959.955,8.341,2.4l.184.111.213,0c.559-.005,1.118,0,1.677,0a30.042,30.042,0,0,0,7.571-.627l.723-.123,0-.634C75.262,40.415,75.161,38.384,74.96,36.483Z"></path><path d="M53.1,29.218c1.374,2.14,1.256,6.159,1.074,9.081.727-.008,1.453-.016,2.18-.04-.095-1.563-.2-3.593,1.5-3.956a34.777,34.777,0,0,1,8.292-.79,1.185,1.185,0,0,1,1.137.869,16.375,16.375,0,0,1,.245,3.83c1.429.079,3.016.04,3.38-.758A11.573,11.573,0,0,0,71.648,35c-.513-1.295-.387-3.159-.458-4.683a12.087,12.087,0,0,1,.134-2.637C65.267,28.373,59.163,28.57,53.1,29.218Zm9.161,3.048c-.727.071-1.445.189-2.172.26A1.182,1.182,0,0,1,58.9,31.342a1.209,1.209,0,0,1,1.184-1.185c.727-.071,1.445-.189,2.172-.26a1.183,1.183,0,0,1,1.184,1.184A1.215,1.215,0,0,1,62.259,32.266Z"></path><path d="M73.2,50.4l2.4-.1-2.03-1.287a4.3,4.3,0,0,1-1.687-3.339l-.083-.709-.712.048c-.9.061-1.859.092-3.121.1l-1.529.011.944,1.2c.16.2.312.422.458.647l.134.206.23.088a3.924,3.924,0,0,1,2.5,2.649l.166.534.56-.007Q72.315,50.44,73.2,50.4Z"></path><path d="M87.118,57.355l.049.741.739.026c.648.023,1.3.045,1.956.076l.785.037V52.34l-.621-.108c-.67-.116-1.34-.249-2-.389l-.992-.21.09,1.011A29.305,29.305,0,0,1,87.15,56.2C87.138,56.581,87.126,56.968,87.118,57.355Z"></path><path d="M91.517,58.271l.711.038q2.034.105,4.054.22l.908.053-.121-.9A18.182,18.182,0,0,1,97,54.716l.034-1.513-.679-.077c-1.532-.172-2.8-.334-3.977-.509l-.86-.128Z"></path><path d="M97.937,46.578l.894.165.03-.917c.032-.944.063-1.88.078-2.824l.009-.535-6.362-2.313-.034,1.034c-.02.589-.045,1.181-.071,1.772-.025.607-.051,1.214-.071,1.821l-.022.657.756.126c.243.04.491.082.732.128C95.165,45.944,96.493,46.233,97.937,46.578Z"></path><path d="M104.749,59.848l-1.9-.092c-1.934-.094-3.862-.2-5.79-.315-2.457-.141-4.912-.282-7.378-.388l-.666-.029-.106.658c-.073.449-.17.891-.265,1.332-.092.419-.182.837-.255,1.259l-.149.864.876.013c1.337.021,2.7.038,4.082.038,2.7,0,5.467-.065,8.178-.3l.758-.008v-.531a6.171,6.171,0,0,1,1.163-1.273Z"></path><path d="M98.711,53.387l-.8-.085-.052,1.311a12.8,12.8,0,0,0,.166,3.477l.126.554,4.062.211.11-.659a12.993,12.993,0,0,0,.116-2.265c0-.469-.007-.938.026-1.4l.052-.716-.713-.083C100.785,53.608,99.755,53.5,98.711,53.387Z"></path><path d="M91.543,45.342l.065-1.826c.039-1.042.078-2.084.09-3.132l.006-.536-.506-.179c-3.038-1.077-5.557-1.944-7.927-2.73l-.971-.321-.015,1.023q-.034,2.444-.047,4.887l0,.49.588.261c2.373,1.346,5.088,1.653,7.713,1.95Z"></path><path d="M98.722,83.735l1.725-.591c1.895-.65,3.941-1.318,6.44-2.1l.558-.175-.217-3.948-1.628.339c-3.834.8-7.8,1.623-11.69,2.642-.81.211-1.613.442-2.415.672a27.12,27.12,0,0,1-8.242,1.484l-.766-.021,0,.908c-.008,1.616-.016,3.226-.039,4.843l-.013.976.946-.239C88.583,87.211,93.738,85.444,98.722,83.735Z"></path><path d="M82.222,45.148c-.008,1.164,0,2.336.008,3.508l0,.508.472.186a40.984,40.984,0,0,0,8.2,2.165l1.009.173-.139-1.014A28.481,28.481,0,0,1,91.54,46.8v-.661l-1.682-.209a22.451,22.451,0,0,1-6.581-1.458L82.23,44Z"></path><path d="M97.625,69.2l1.534-.291c1.119-.212,2.239-.425,3.364-.6l.65-.191v-.641a4.1,4.1,0,0,0-.656-3.432l-.25-.36-.437.042c-1.086.1-2.186.166-3.213.218l-.717.037.006.867a22.838,22.838,0,0,1-.135,3.318Z"></path><path d="M92.37,47.168a24.375,24.375,0,0,0,.3,3.778.674.674,0,0,1,0,.144l-.053.7.7.1c1.428.2,2.95.385,4.792.587l.921.1-.093-.922a30.187,30.187,0,0,1-.131-3.436l.008-.6-.579-.143c-1.75-.431-3.38-.778-4.984-1.061l-.892-.156Z"></path><path d="M105.6,49.478c-1.659-.475-3.317-.95-4.991-1.394l-.942-.249v.975a29.4,29.4,0,0,0,.17,3.265l.067.6.6.065c1.574.17,3.259.361,4.916.6l.876.129-.065-3.263-.1-.578Z"></path><path d="M99.837,69.683c-1.52.29-3.091.589-4.65.744-1.054.1-2.109.2-3.164.293-2.93.263-5.959.536-8.93,1l-.64.1.006.648c.024,2.658.04,5.324.032,7.982l0,.735.734.017c.119,0,.237,0,.357,0a29.812,29.812,0,0,0,8.436-1.642c1.013-.3,2.023-.6,3.033-.856,3.379-.857,6.839-1.569,10.184-2.257l1.944-.4-.034-.643q-.153-2.935-.284-5.87l-.033-.744-.743.028A41.327,41.327,0,0,0,99.837,69.683Z"></path><path d="M82.436,70.1l.007.859.851-.124c.8-.117,1.607-.227,2.411-.313l1.186-.18-.67-1.026a.65.65,0,0,1-.062-.107,9.463,9.463,0,0,1-.71-4.437l.062-.8-.8-.012c-.526-.008-1.058-.008-1.591-.008h-.76l.01.76C82.4,66.507,82.419,68.307,82.436,70.1Z"></path><path d="M103.118,62.457l-.363.448.34.466a5.145,5.145,0,0,1,1.009,3.8l-.13.929.934-.077c.377-.031.753-.054,1.131-.069l.751-.032-.034-.751c-.086-1.956-.157-3.913-.228-5.869l-.044-1.213-1.065.582A7.555,7.555,0,0,0,103.118,62.457Z"></path><path d="M104.167,54.021l-.806-.112-.046.813c-.024.456-.034.912-.043,1.368-.014.694-.027,1.349-.1,2.008l-.081.783.787.043q.886.048,1.773.072l.794.022-.136-4.677-.615-.1C105.2,54.165,104.686,54.093,104.167,54.021Z"></path><path d="M87.741,69.862l.238.43,1.779-.165c1.833-.167,3.729-.339,5.6-.578.134-.017.266-.038.4-.059s.233-.037.352-.052l.52-.065.117-.511c.068-.3.135-.594.177-.891l.123-.856H86.565l.37,1.008A12.473,12.473,0,0,0,87.741,69.862Z"></path><path d="M97.036,64l-.767.018c-2.841.067-5.737.022-8.539-.023l-1.224-.019-.064.691a6.92,6.92,0,0,0-.034.851l.022.727,10.614.007Z"></path><path d="M83.451,62.169a9.656,9.656,0,0,1,2.966-.9l.931-.184.17-.286a4.118,4.118,0,0,0,.379-.862l.3-.945-.99-.028c-1.373-.04-2.755-.072-4.136-.072h-.759l.041,3.9Z"></path><path d="M40.686,41.146l.107.694.7-.062a86.222,86.222,0,0,1,10.084-.408l1.446.041-.8-1.2c-1.2-1.8-4.624-2.1-11.122-.964l-.778.135.175.77C40.573,40.478,40.633,40.808,40.686,41.146Z"></path><path d="M82.268,55.2l.023,2.827h.744q1.226,0,2.45.024l.744.014.02-.744c.009-.366.025-.733.041-1.1a19.273,19.273,0,0,0-.157-4.406l-.086-.457L85.6,51.23c-.8-.224-1.59-.481-2.352-.763l-1.015-.375,0,1.082Q82.246,53.189,82.268,55.2Z"></path><path d="M32.7,88.566l.055.843c.06.922.169,1.917.322,2.959l.09.611.617.028c1.671.079,3.342.151,5.029.2l.922.026-.163-.908c-.149-.83-.313-1.754-.454-2.709l-.086-.58-.583-.057c-1.564-.153-3.215-.276-4.906-.366Z"></path><path d="M68.671,89.259a3.265,3.265,0,0,0-2.7-.7l-.213.071c-2.176,1.113-3.662,3.136-4.541,6.187A17.85,17.85,0,0,0,60.8,96.9a9.994,9.994,0,0,1-.794,3.037,4.416,4.416,0,0,1-.508.75l-.162.293.019,1.032c.053,2.474.118,5.552,2.239,7.561a5.564,5.564,0,0,0,3.13,1.509l.117.015.117-.023a25.133,25.133,0,0,0,2.53-.6.342.342,0,0,1,.137-.013l.258.031.222-.136a6.062,6.062,0,0,0,2.148-2.281,14.943,14.943,0,0,0,1.764-7.75C71.9,97.713,71.34,91.4,68.671,89.259Zm-3.323,5.748.109-.063a.557.557,0,0,1,.183-.071.383.383,0,0,1,.109-.025l.137-.013a2.709,2.709,0,0,1,3.262,1.685c1.2,2.664.33,7.3-1.666,8.864a2.012,2.012,0,0,1-2.241.441c-1.387-.685-2.45-3.248-2.422-5.836C62.832,98.84,63.1,96.054,65.348,95.007Z"></path><path d="M65.83,105.053a1.434,1.434,0,0,0,.165.01c.433,0,1-.216,1.523-1.1.692-1.184,2.039-5.745.691-7.543a2.106,2.106,0,0,0-2.365-.694l-.074.023c-2.446.885-2.412,5-1.855,6.9C64.156,103.484,64.727,104.915,65.83,105.053Z"></path><path d="M58.552,102.7l-.077-.983-.927.337a9.227,9.227,0,0,1-4.486.232l-.547-.083-.477.954.281.371a.547.547,0,0,1,.115.269c.05.38.081.784.112,1.2.14,1.834.314,4.116,2.319,5.269a9.752,9.752,0,0,0,4.532,1.252c.106,0,.213.007.319.007s.194,0,.291,0l1.8,0-.939-1.21C59.29,108.273,58.737,105.048,58.552,102.7Z"></path><path d="M72.25,87.186l-.4-.317-.442.252A4.479,4.479,0,0,1,70,87.6l-1.368.251.961,1.005c2.249,2.353,3.273,7.6,3.29,11.764l0,.845.839-.1c.487-.061,1.027-.1,1.491-.121l.726-.035-.012-.727C75.853,95.969,75.389,89.689,72.25,87.186Z"></path><path d="M75.748,56.714c-.117-1.587-.233-3.173-.318-4.762l-.138-.725-.729.018c-.905.023-1.817.045-2.722.06l-.847.014.117.84c.389,2.8.66,5.667.922,8.443.175,1.851.35,3.7.56,5.547l.117,1.028c.59,5.131,1.2,10.437.7,15.669a10.111,10.111,0,0,1-.438,2.271l-.377,1.119,3.686-.421.023-.646c.3-8.474.2-16.841-.3-24.869C75.923,59.1,75.835,57.909,75.748,56.714Z"></path><path d="M29.645,73.914c-6.689-.079-13.851.11-20.524-.814-.032.5-.063,1-.1,1.5,1.24.134,2.4.276,3.475.363,1.4.063,2.653.126,3.782.174,2.275.055,4.051.1,5.4.134,2.724.087,3.759.229,3.759.395s-1.035.316-3.751.442c-1.351.055-3.135.119-5.426.126-1.152-.031-2.424-.071-3.837-.11-1.074-.079-2.235-.2-3.475-.34-.071,1.011-.126,2.03-.189,3.041,1.658.426,2.953,1.224,3.356,3.056a11.176,11.176,0,0,1,.213,1.579c4.564,0,9.381,0,14.1-.055,4.066-.056,8.007.5,12.042.545a5,5,0,0,1,.743-1.58c2.037-2.835,5.749-4.209,9.1-4.69a1.241,1.241,0,0,1,.418.007,1.15,1.15,0,0,1,1.374,1.138c.048,4.493-.5,8.963-.576,13.456.561-.04,1.129-.1,1.69-.158q.083-8.541.134-17.1a36.8,36.8,0,0,1-9.208,1.114c-2.574.039-4.572-.016-6.088-.008-1.516-.008-2.559-.016-3.23-.016-.671-.024-.971-.079-.979-.158s.276-.182.94-.3a23.535,23.535,0,0,1,3.245-.371c1.532-.111,3.53-.142,6.081-.237a39.266,39.266,0,0,0,9.215-1.24l.032.1c0-.5,0-1,.008-1.5A126.78,126.78,0,0,1,29.645,73.914Z"></path><path d="M42.562,85.349a12.025,12.025,0,0,0,4.529.07.508.508,0,0,1,.246,0l.912.277.054-.951c.084-1.452.167-3,.183-4.56l.01-.92-.9.175c-2.449.478-6.645,1.721-7.358,4.683l-.04.961.688.058C41.442,85.187,42,85.268,42.562,85.349Z"></path><path d="M39.927,86.72a32.818,32.818,0,0,0,.57,5.9l.1.625.633.007q.735.009,1.447.009c1.57,0,3.059-.033,4.517-.1l.705-.032.012-.7c.032-1.879.145-3.774.251-5.381l.065-.986-.968.2a12.971,12.971,0,0,1-4.321-.057c-.72-.09-1.465-.182-2.224-.219l-.767-.037Z"></path><path d="M16.112,71.864c1.441.018,2.93.038,4.373.129,3.649.228,7.285.287,10.669.318q.613,0,1.224,0a115.3,115.3,0,0,0,18.811-1.5.742.742,0,0,1,.142,0l.806.067L52.18,65.9l-.792.039a22.968,22.968,0,0,0-4.606.881c-.824.217-1.6.421-2.338.561-2.294.44-4.652.823-7.01,1.139h0a81.483,81.483,0,0,1-11.667.751c-1.12-.009-2.28.03-3.511.071-4.222.143-9.009.3-12.517-1.651L8.672,67.1,8.62,68.422c-.022.57-.045,1.14-.075,1.726L8.486,71.4l.676.092A57.241,57.241,0,0,0,16.112,71.864Z"></path><path d="M21.3,67.6a109.463,109.463,0,0,0,11.711-.213,100.066,100.066,0,0,0,12.327-1.832,38.57,38.57,0,0,1,6.112-1.192c.016-1.761.031-3.522.055-5.276-.016-2.827-.521-7.47,1.082-10.471a15.64,15.64,0,0,0-7.241-1.018,14.275,14.275,0,0,1,1.168,2.163c.419.94.7,1.674.916,2.235.427,1.121.569,1.564.419,1.658-.118.079-.537-.229-1.169-1.287-.324-.529-.687-1.24-1.153-2.132A15.409,15.409,0,0,0,43.946,47.7c-1.264.127-2.527.316-3.775.529,1.193,1.9,2.4,3.443,3.333,4.794a30.929,30.929,0,0,1,2.424,3.893c.245.529.458.971.608,1.35.126.395.213.711.276.956.119.5.127.726.048.75s-.229-.15-.482-.584c-.126-.214-.268-.5-.442-.845-.2-.332-.45-.743-.742-1.217-.585-.947-1.438-2.147-2.575-3.664a61.918,61.918,0,0,1-3.695-5.2c-1.382.253-2.725.514-3.98.719a31.165,31.165,0,0,1,4.374,6.87c.2.474.364.869.482,1.216s.182.632.229.853c.1.442.095.648.016.671s-.221-.126-.45-.505c-.111-.2-.245-.442-.4-.758-.174-.3-.379-.671-.624-1.106a47.215,47.215,0,0,0-4.983-7.028.943.943,0,0,1-.15.016,58.7,58.7,0,0,1-6.451.418c.758,1.493,1.516,2.772,2.132,3.909a40.275,40.275,0,0,1,2.053,4.123c.2.537.395.987.513,1.382s.19.718.245.971c.1.5.1.726.024.75s-.222-.158-.458-.6c-.119-.221-.261-.513-.427-.869s-.41-.782-.663-1.279c-.513-1-1.256-2.282-2.235-3.933-.726-1.232-1.619-2.661-2.5-4.422-2.251.04-4.494.079-6.728.292q1.527,2.915,2.6,5.023c.86,1.666,1.524,2.969,2,3.972.972,2.013,1.248,2.827,1.1,2.906s-.679-.608-1.84-2.511c-.576-.948-1.311-2.2-2.227-3.838-.8-1.485-1.777-3.285-2.9-5.417a29.4,29.4,0,0,0-3.182.568c-.079.016-.158.024-.229.032-.119.126-.222.268-.332.4.592.98,1.161,1.911,1.674,2.756.584,1.082,1.114,2.054,1.6,2.93.94,1.745,1.666,3.111,2.227,4.154,1.153,2.053,1.5,2.9,1.366,2.993s-.734-.593-2.092-2.559c-.672-.987-1.445-2.337-2.456-4.059-.5-.861-1.043-1.816-1.651-2.874-.434-.7-.908-1.477-1.4-2.282a23.709,23.709,0,0,0-1.934,4.493c.284.466.553.908.789,1.319.293.592.553,1.121.79,1.6.458.947.766,1.7,1.035,2.266.521,1.114.639,1.611.5,1.7s-.5-.245-1.24-1.3c-.363-.529-.75-1.256-1.271-2.18-.245-.458-.521-.963-.829-1.532-.087-.134-.182-.292-.269-.434A25.451,25.451,0,0,0,9.492,65.6C12.69,68.22,17.42,67.533,21.3,67.6Z"></path><path d="M121.886,76.537l.552-.216-.015-.577c-.008-.3-.016-.593-.031-.889l-.04-.787-.921.093a31.466,31.466,0,0,0-7.785,1.449.313.313,0,0,1-.2.016l-.944-.235.047,3.909.953-.285Q117.694,77.76,121.886,76.537Z"></path><path d="M77.192,89.823l.883-.159c.974-.176,1.939-.367,2.905-.583l.577-.129.009-.591c.131-8.4.026-16.941-.077-25.2-.126-10.142-.256-20.63.053-30.928l.02-.658-.65-.105a36.386,36.386,0,0,0-4.677-.451L75.611,31l-.132.61c-.059.274-.125.555-.207.829l-.068.229.1.278a65.984,65.984,0,0,1,.847,12.845c-.011,3.613.234,7.24.472,10.747.087,1.282.173,2.566.248,3.852.488,8.625.575,17.2.26,25.5l-.005.159.059.148a.331.331,0,0,1,.025.13c-.008.861-.016,1.731-.016,2.6Z"></path><path d="M113.58,74.711a32.542,32.542,0,0,1,7.858-1.41l.88-.085-.14-1.889c-.06-.8-.12-1.6-.174-2.4l-.048-.722-.724.023c-1.138.035-2.274.1-3.411.164-1.577.089-3.208.181-4.806.19l-.784,0,.04.783c.078,1.567.141,3.141.188,4.707l.031,1,.952-.311Z"></path><path d="M121.416,77.584q-3.922,1.15-7.838,2.324l-.886.265.562,1.017a7.994,7.994,0,0,1,.587,3.2v1.224l1.091-.555c2.534-1.291,4.652-2.276,6.664-3.1l.466-.19v-.5a1.376,1.376,0,0,1,0-.161,23.729,23.729,0,0,0,.31-2.754l.066-1.067Z"></path><path d="M117.641,67.531l.789-.052-.094-.785c-.063-.535-.09-1.095-.118-1.661a10.017,10.017,0,0,0-1-4.695l-1.194-2.03-.2,2.347a2.749,2.749,0,0,1-.491,1.414c-.375.515-.883.587-1.749.669a9.5,9.5,0,0,0-.97.126l-.708.3.031.5c.071,1.111.143,2.232.206,3.343l.041.711.711,0C114.326,67.707,115.877,67.647,117.641,67.531Z"></path><path d="M110.083,81.988a1,1,0,0,0-1.028.557,11.9,11.9,0,0,0-1.107,5.834c0,.01-.006.072,0,.082a1,1,0,0,0,1.507,1.087,12.1,12.1,0,0,0,1.16-.81,1,1,0,0,0,.311-.439,3.922,3.922,0,0,0,.206-.976,16.879,16.879,0,0,0-.19-4.537A1,1,0,0,0,110.083,81.988Z"></path><path d="M77.942,91.326c.016,1.382.071,2.764.189,4.138,4.273-1.658,7.874-3.087,10.9-4.161,3.364-1.209,5.986-2.148,7.992-2.867.979-.411,1.808-.75,2.5-1.034.719-.261,1.287-.482,1.745-.593.94-.221,1.343-.268,1.366-.189s-.347.276-1.208.624c-.426.173-.955.458-1.635.766-.671.339-1.468.734-2.448,1.2-1.966.845-4.58,1.824-7.936,3.119-3.1,1.161-6.76,2.646-11.158,4.359.079.679.181,1.351.308,2.022a49.192,49.192,0,0,1,11.687-5.457c5.449-1.879,10.835-3.98,16.307-5.8a13.294,13.294,0,0,1,.908-4.888c-2.669.845-5.338,1.7-7.983,2.614C92.4,87.631,85.333,90.055,77.942,91.326Z"></path><path d="M110.733,58.538c-.429-6.352-.874-12.92-.927-19.369l0-.513-.48-.182a6.852,6.852,0,0,0-1.454-.372l-.854-.123,0,.863c-.035,12.134.357,25.1,1.233,40.8l.054.958,1.438-.446c.466-.145.933-.29,1.4-.427l.538-.16v-.561C111.657,72.182,111.187,65.246,110.733,58.538Z"></path><path d="M113.794,61.866s.177-.021.251-.027h.457l.2-.425a4.232,4.232,0,0,0-.037-3.068l-.111-.37-.367-.124a9.007,9.007,0,0,0-1.766-.4l-.9-.113.056.9c.063,1.021.134,2.05.206,3.07l.057.82.812-.132A11.28,11.28,0,0,1,113.794,61.866Z"></path><path d="M34.053,41.524l.042.972,4.6-.457H38.7c.136-.015.272-.03.409-.037l.839-.043-.139-.829c-.048-.291-.112-.575-.182-.88l-.162-.71-.714.141c-.84.165-1.7.332-2.168.4l-.249.034c-.443.06-.891.121-1.339.188l-.248.083a.476.476,0,0,1-.124.045l-.648.14.06.66C34.048,41.326,34.05,41.425,34.053,41.524Z"></path><path d="M26.975,102.623l.025-.669-.663-.1q-2.442-.369-4.9-.728l-1.4-.2.613,1.271c1.12,2.321,2.936,5,7.076,5.106l1.988.052L28.259,106A4.231,4.231,0,0,1,26.975,102.623Z"></path><path d="M26.683,101.192l.008-3.271-.639-.1c-.745-.111-1.49-.214-2.235-.317l-.785-.109-.1,1.208c-.038.447-.077.9-.1,1.341l-.037.68.674.1c.731.11,1.469.214,2.2.318Z"></path><path d="M21.917,100.494l.058-.807c.019-.271.044-.542.068-.813.027-.291.053-.584.074-.878l.05-.714-.711-.083c-2.057-.24-3.878-.381-5.569-.431l-.786-.019.014.786a14,14,0,0,0,.076,1.445l.069.582.582.074c1.756.22,3.519.48,5.275.739Z"></path><path d="M28.717,102.2l-.9-.129.045.908a3.447,3.447,0,0,0,3.543,3.5h.041a4.688,4.688,0,0,0,2.594-.784,4.343,4.343,0,0,0,1.2-1.743l.35-.916-.976-.1C32.9,102.766,31.024,102.531,28.717,102.2Z"></path><path d="M38.142,85.57c-1.384-.014-2.865-.071-4.662-.18l-.773-.047-.021.775c-.009.291-.009.574-.009.865v.709l.709.04c1.758.1,3.291.212,4.689.352l.863.087L38.9,87.3c-.014-.322-.022-.645-.014-.967l.017-.759Z"></path><path d="M32.526,42.654l.672-.071v-.675c0-.177,0-.37-.009-.555l-.036-.809-.8.1a34.6,34.6,0,0,1-3.6.287c-.309.007-.671-.013-1.047-.032-1.618-.08-4.067-.2-4.593,1.834l-.278,1.08,1.105-.149C26.406,43.328,29.137,43.008,32.526,42.654Z"></path><path d="M29.972,101.6c1.028.1,2.055.216,3.082.327l1.025.111-.012-.847c-.008-.552-.025-1.112-.048-1.672l-.028-.646-.643-.068c-1.433-.15-3-.35-4.939-.628l-.857-.124v3.26l.763.093C28.867,101.469,29.413,101.536,29.972,101.6Z"></path><path d="M34.838,38.643l.094.717.721-.062c.374-.031.749-.064,1.116-.1h0c.719-.081,1.616-.246,2.4-.4l.774-.207-.2-.776a.813.813,0,0,1-.029-.139l-.019-.165a10.344,10.344,0,0,0-.22-1.384l-.154-.615-.632.05c-.375.029-.749.043-1.124.053.033-.51.079-1,.08-1.394a18.747,18.747,0,0,0-.064-3.426c-.179-.947-1.625-.546-1.446.4a28.654,28.654,0,0,1,.009,3.615c0,.252-.016.537-.034.836-.237,0-.474.007-.711.017l-.742.032.025.742C34.7,37.239,34.755,37.96,34.838,38.643Z"></path><path d="M27.184,47.924a94,94,0,0,0,10.186-.789l1.517-.237c4.978-.786,10.62-1.677,14.953.527l.4.2.506-.356a1.165,1.165,0,0,1,.122-.085c1.811-1.089,4.525-.855,6.919-.647.9.078,1.758.151,2.573.162.1,0,.2,0,.3.006l2.507.178-2-1.523c-3.257-2.478-8.194-2.945-12.593-3.074a100.878,100.878,0,0,0-12.842.508c-1.551.155-3.113.287-4.677.418-3.586.3-7.294.615-10.888,1.216-.458.075-.966.137-1.5.2-2.671.33-5.994.741-7.4,3.132l-.829,1.407,1.608-.288A82.636,82.636,0,0,1,27.184,47.924Z"></path><path d="M7.411,90.34l.674.03c.538.024,1.075.054,1.613.093l.8.058.009-.8c.012-.964.038-1.889.063-2.812.026-.94.052-1.879.064-2.86.015-1.458-.1-2.719-1.7-3.378l-.988-.409-.08,1.611c-.036.982-.146,2-.252,2.978a28.569,28.569,0,0,0-.244,4.812Z"></path><path d="M11.464,88.569c-.031.461-.061.908-.076,1.325l-.026.7.7.069c1.315.13,2.675.288,4.04.471l.85.113V90.4c0-.545-.024-1.088-.057-1.633l-.04-.672-.672-.032q-1.956-.093-3.91-.243l-.76,0Z"></path><path d="M29.345,94.39c-7.321-.529-14.531-2.179-21.875-2.44a1.119,1.119,0,0,1-.529-.142,2.128,2.128,0,0,0-.125.22C4.367,91.92,3.824,94.962,4.61,96.82c1.241,2.932,5.516,2.01,8.057,2.019a.685.685,0,0,0,.553-.25c.11.01.221.015.331.026-.04-.568-.055-1.1-.055-1.532a1.24,1.24,0,0,1,.087-.466,1.145,1.145,0,0,1,1.1-1.508c6.594.032,13.006,1.579,19.545,2.172a1.206,1.206,0,0,1,.561.2,1.089,1.089,0,0,1,.821,1.09c.008.955.071,1.919.087,2.874,2.108.205,4.209.379,6.317.458,1.358.048,7.747.932,9.1-.4.04-2.329.064-4.667.087-7A130.989,130.989,0,0,1,29.345,94.39Zm-23.5,1.4c-.25-.95-.109-2.425,1.228-2.253a.592.592,0,0,0,.546-.182,3.061,3.061,0,0,1,1.063.392,2.569,2.569,0,0,1,1.026,2.756,1.089,1.089,0,0,1-.913.823c-.175,0-.351,0-.525-.007C7.116,97.28,6.178,97.072,5.842,95.794Zm39.833,5.237H41.727c-.79,0-.79-2.369,0-2.369h3.948A1.185,1.185,0,1,1,45.675,101.031Z"></path><path d="M15.971,85.072c-1.545.008-2.855.008-3.6.008h-.75v.75c0,.105-.007.209-.015.333l-.046.741.741.053c1.223.087,2.437.167,3.652.222l.815.027-.032-.817c-.007-.184-.015-.375-.015-.567v-.754Z"></path><path d="M19.333,91.583c3.733.532,7.594,1.082,11.43,1.272.216.018.43.026.646.034l.9.034-.124-.887c-.138-1-.235-1.926-.294-2.843l-.044-.674-.675-.027c-2.386-.094-4.775-.145-7.164-.2-1.818-.039-3.636-.078-5.453-.136l-.816-.026.043.815c.031.584.054,1.176.046,1.759l-.008.66Z"></path><path d="M24.939,85.041c-1.7.015-4.035.022-6.266.03l-1.079,0v.747c0,.168.008.335.015.5l.033.934.7.023c1.911.065,3.822.106,5.732.148,2.32.05,4.638.1,6.954.192l.779.031v-.78c0-.286,0-.571.008-.855l.021-.728-.727-.042C29.251,85.139,27.092,85.025,24.939,85.041Z"></path></g></svg>