<svg xmlns="http://www.w3.org/2000/svg" viewBox="0 0 512 512" x="0px" y="0px"><title>Export-shipping-chinaandustradewar-logistics-ship-trade</title><path d="M496,283.81445V257.07324l-24-2.99994V160.13574h8v-16H448V64.13007l7.99414.00567.01172-16L375.70215,48.079c-1.26929-.73193-2.54785-1.45911-3.83228-2.1684l.00025-.00042a240.14091,240.14091,0,1,0,54.00561,379.75561,42.076,42.076,0,0,0,23.42212,6.47c14.15332,0,21.76074-5.2124,27.874-9.40088,5.38085-3.687,9.63085-6.59912,18.82812-6.59912v-16c-14.15332,0-21.75977,5.2124-27.87207,9.40039-5.38184,3.687-9.63184,6.59961-18.83008,6.59961-9.19726,0-13.44726-2.91211-18.8291-6.59961-6.1123-4.188-13.71875-9.40039-27.87207-9.40039-14.14648,0-21.75,5.21338-27.85938,9.40186-5.376,3.68652-9.62207,6.59814-18.81054,6.59814-9.17676,0-13.41895-2.91113-18.78906-6.59619-6.1045-4.18994-13.70313-9.40381-27.84082-9.40381-14.14356,0-21.74415,5.21338-27.85254,9.40283-5.37305,3.686-9.61817,6.59717-18.80176,6.59717-9.18067,0-13.42383-2.91113-18.7959-6.59668-6.10645-4.18945-13.70606-9.40332-27.84668-9.40332v16c9.17969,0,13.42383,2.91114,18.7959,6.59668,6.10644,4.18946,13.70605,9.40332,27.84668,9.40332,14.14355,0,21.74414-5.21338,27.85254-9.40283,5.373-3.686,9.61816-6.59717,18.80176-6.59717,9.17578,0,13.418,2.91065,18.78808,6.59619,6.10449,4.18946,13.70313,9.40381,27.8418,9.40381,14.14648,0,21.75-5.21338,27.85937-9.40185,5.376-3.68653,9.62207-6.59815,18.81055-6.59815a29.29287,29.29287,0,0,1,8.90039,1.22A223.17227,223.17227,0,0,1,256,480.13574a225.954,225.954,0,0,1-48-5.13757v-20.235a23.84325,23.84325,0,0,0-7.0293-16.9707l-30.62793-30.62793A7.94678,7.94678,0,0,1,168,401.5083V382.76318a7.94591,7.94591,0,0,1,2.34375-5.65722l16-16a24.029,24.029,0,0,0,0-33.94092l-40.001-40.00049a23.84272,23.84272,0,0,0-16.96972-7.02881H33.27686a226.87126,226.87126,0,0,1,1.29687-58.11236l19.0835,19.08307a23.84485,23.84485,0,0,0,16.96972,7.02929H80a24.0275,24.0275,0,0,0,24-24v-16a8.00917,8.00917,0,0,1,8-8h24v-16H112a24.0275,24.0275,0,0,0-24,24v16a8.00916,8.00916,0,0,1-8,8H70.62695a7.94727,7.94727,0,0,1-5.65625-2.34326L38.29126,203.113A224.31479,224.31479,0,0,1,224,34.40131v55.107a7.94563,7.94563,0,0,1-2.34375,5.65674l-19.31348,19.314,11.31446,11.31348,19.3125-19.31348A23.84183,23.84183,0,0,0,240,89.5083v-56.806q7.95007-.55737,16-.56659A224.78153,224.78153,0,0,1,339.02637,48.053L264.00586,48l-.01172,16L272,64.00568v80.13006H240v16h8v93.9375l-24,3v26.74121A88.00074,88.00074,0,0,0,276.72754,364.436l7.45044,3.25952c-.95.623-1.85962,1.24365-2.73364,1.843-5.37305,3.686-9.61817,6.59717-18.80176,6.59717-9.18067,0-13.42383-2.91113-18.7959-6.59668-6.10645-4.18945-13.70606-9.40332-27.84668-9.40332v16c9.17969,0,13.42383,2.91114,18.7959,6.59668,6.10644,4.18946,13.70605,9.40332,27.84668,9.40332,14.14355,0,21.74414-5.21338,27.85254-9.40283,5.373-3.686,9.61816-6.59717,18.80176-6.59717,9.17578,0,13.418,2.91065,18.78808,6.59619,6.10449,4.18946,13.70313,9.40381,27.8418,9.40381,14.14648,0,21.75-5.21338,27.85937-9.40185,5.376-3.68653,9.62207-6.59815,18.81055-6.59815,9.19727,0,13.44727,2.91211,18.8291,6.59961,6.11231,4.188,13.71875,9.40039,27.87207,9.40039s21.76074-5.2124,27.874-9.40088c5.38085-3.687,9.63085-6.59912,18.82812-6.59912v-16c-14.15332,0-21.75977,5.2124-27.87207,9.40039-5.38184,3.687-9.63184,6.59961-18.83008,6.59961-8.93945,0-13.20776-2.75342-18.38159-6.2937l12.3562-5.406A88.00074,88.00074,0,0,0,496,283.81445ZM129.37305,296.13574a7.94677,7.94677,0,0,1,5.65625,2.34278l40,40a8.00947,8.00947,0,0,1,0,11.314l-15.999,15.99951A23.84213,23.84213,0,0,0,152,382.76318V401.5083a23.843,23.843,0,0,0,7.0293,16.97022l30.62793,30.62793A7.94706,7.94706,0,0,1,192,454.76318v16.13233A224.4964,224.4964,0,0,1,35.55176,296.13574ZM288,64.017l144,.1018v80.017H288Zm-24,96.11877H456v91.93762l-95.00781-11.87561L360,240.07324l-96,12Zm45.29688,200c-.80835,0-1.58936.02149-2.356.05445L283.1416,349.77783A71.9993,71.9993,0,0,1,240,283.81445v-12.6167l112-14v118.728c-6.582-.71973-10.32568-3.27295-14.8623-6.38623C331.0332,365.34961,323.43457,360.13574,309.29688,360.13574Zm102.35351.6709.06543.14941a48.71138,48.71138,0,0,0-9.11914-.82031c-14.14648,0-21.75,5.21338-27.85938,9.40186A50.37545,50.37545,0,0,1,368,373.66406V257.19775l112,14v12.6167a71.9993,71.9993,0,0,1-43.1416,65.96338Z"></path><rect x="288" y="176.13574" width="16" height="48"></rect><rect x="320" y="176.13574" width="16" height="48"></rect><rect x="352" y="176.13574" width="16" height="48"></rect><rect x="384" y="176.13574" width="16" height="48"></rect><rect x="416" y="176.13574" width="16" height="48"></rect><rect x="304" y="80.13574" width="16" height="48"></rect><rect x="336" y="80.13574" width="16" height="48"></rect><rect x="368" y="80.13574" width="16" height="48"></rect><rect x="400" y="80.13574" width="16" height="48"></rect><path d="M232,232.13574v-16a64.07239,64.07239,0,0,1-64-64V131.4494l10.34277,10.34308L189.65723,130.479,160,100.82227,130.34277,130.479l11.31446,11.31348L152,131.4494v20.68634A80.09041,80.09041,0,0,0,232,232.13574Z"></path><rect x="88" y="320.13574" width="24" height="16"></rect><rect x="120" y="352.13574" width="16" height="16"></rect><rect x="144" y="248.13574" width="16" height="16"></rect><rect x="128" y="216.13574" width="16" height="16"></rect></svg>